# xmcd
#
# Track frame offsets:
#	150
#	11982
#	22341
#	39723
#	59581
#	75125
#	87357
#	105959
#	118987
#	129445
#
# Disc length: 2042 seconds
# Revision: 0
# Processed by: cddbd v1.5.2PL0 Copyright (c) Steve Scherf et al.
# Submitted via: dBpowerAMP V12.0
#
DISCID=8007f80a
DTITLE=Jonathan Byrd and The Pickup Cowboys - Jonathan Byrd and the Pickup Cowboys
DYEAR=2018
DGENRE=Country
TTITLE0=Pickup Cowboy
TTITLE1=Tractor Pull
TTITLE2=When the Well Runs Dry
TTITLE3=Lakota Sioux
TTITLE4=Taking It Back
TTITLE5=Temporary Tattoo
TTITLE6=We Used To Be Birds
TTITLE7=Fish Out of Water
TTITLE8=It Don't Make Sense
TTITLE9=Do You Dream¿
EXTD=
EXTT0=
EXTT1=
EXTT2=
EXTT3=
EXTT4=
EXTT5=
EXTT6=
EXTT7=
EXTT8=
EXTT9=
PLAYORDER=
